<svg width="20" height="21" viewBox="0 0 20 21" fill="none" xmlns="http://www.w3.org/2000/svg">
<g clip-path="url(#clip0_7_178)">
<path d="M15.2632 4.90357L10.5264 4.37727L4.73691 4.90357L4.21051 10.1668L4.73681 15.43L10 16.0879L15.2632 15.43L15.7895 10.0353L15.2632 4.90357Z" fill="white"/>
<path d="M6.89616 13.0694C6.50276 12.8036 6.23037 12.4155 6.08167 11.9023L6.99486 11.526C7.07776 11.8418 7.22246 12.0865 7.42906 12.2602C7.63436 12.4339 7.88436 12.5194 8.17646 12.5194C8.47516 12.5194 8.73176 12.4286 8.94616 12.247C9.16056 12.0654 9.26856 11.8338 9.26856 11.5536C9.26856 11.2668 9.15536 11.0325 8.92906 10.851C8.70276 10.6695 8.41857 10.5786 8.07906 10.5786H7.55146V9.6747H8.02506C8.31716 9.6747 8.56327 9.5958 8.76327 9.4379C8.96327 9.28 9.06327 9.0642 9.06327 8.7892C9.06327 8.5445 8.97376 8.3497 8.79486 8.2037C8.61596 8.0577 8.38956 7.984 8.11456 7.984C7.84616 7.984 7.63296 8.0551 7.47506 8.1985C7.31716 8.3419 7.20266 8.5182 7.13037 8.7261L6.22646 8.3498C6.34616 8.0103 6.56597 7.7103 6.88827 7.4511C7.21067 7.1919 7.62246 7.0616 8.12246 7.0616C8.49216 7.0616 8.82506 7.1327 9.11986 7.2761C9.41456 7.4195 9.64617 7.6182 9.81327 7.8708C9.98037 8.1247 10.0633 8.409 10.0633 8.7247C10.0633 9.0471 9.98567 9.3194 9.83036 9.5431C9.67507 9.7668 9.48427 9.9378 9.25797 10.0576V10.1115C9.55667 10.2365 9.80006 10.4273 9.99216 10.6839C10.183 10.9405 10.279 11.2471 10.279 11.605C10.279 11.9629 10.1882 12.2826 10.0066 12.5629C9.82497 12.8432 9.57367 13.0642 9.25526 13.2247C8.93556 13.3852 8.57636 13.4668 8.17766 13.4668C7.71587 13.4681 7.28956 13.3352 6.89616 13.0694Z" fill="#1A73E8"/>
<path d="M12.5 8.53772L11.5026 9.26272L11.0013 8.50222L12.8 7.20482H13.4895V13.3245H12.5V8.53772Z" fill="#1A73E8"/>
<path d="M15.2632 20.1667L20 15.4299L17.6316 14.3773L15.2632 15.4299L14.2106 17.7983L15.2632 20.1667Z" fill="#EA4335"/>
<path d="M3.6842 17.7983L4.7368 20.1667H15.2631V15.4299H4.7368L3.6842 17.7983Z" fill="#34A853"/>
<path d="M1.5789 0.166656C0.7066 0.166656 0 0.873257 0 1.74556V15.4298L2.3684 16.4824L4.7368 15.4298V4.90346H15.2631L16.3157 2.53506L15.2632 0.166656H1.5789Z" fill="#4285F4"/>
<path d="M0 15.4299V18.5878C0 19.4602 0.7066 20.1667 1.5789 20.1667H4.7368V15.4299H0Z" fill="#188038"/>
<path d="M15.2632 4.90334V15.4296H20V4.90334L17.6316 3.85074L15.2632 4.90334Z" fill="#FBBC04"/>
<path d="M20 4.90346V1.74556C20 0.873156 19.2934 0.166656 18.4211 0.166656H15.2632V4.90346H20Z" fill="#1967D2"/>
</g>
<defs>
<clipPath id="clip0_7_178">
<rect width="20" height="20" fill="white" transform="translate(0 0.166656)"/>
</clipPath>
</defs>
</svg>
