<svg width="312" height="624" viewBox="0 0 312 624" fill="none" xmlns="http://www.w3.org/2000/svg">
<g clip-path="url(#clip0_1_3924)">
<rect width="312" height="624" fill="#F5F5F5"/>
<path d="M0 0C3.4125 5.22474 209.422 418.177 312 624" stroke="black"/>
<path d="M312 0C308.588 5.22474 102.578 418.177 0 624" stroke="black"/>
<rect width="130" height="40" transform="translate(91.3333 292.333)" fill="#F5F5F5"/>
<path d="M100.773 317.333V306.837H104.053C104.768 306.837 105.403 306.933 105.957 307.125C106.512 307.307 106.944 307.616 107.253 308.053C107.573 308.48 107.733 309.056 107.733 309.781C107.733 310.485 107.573 311.067 107.253 311.525C106.944 311.984 106.512 312.331 105.957 312.565C105.403 312.789 104.768 312.901 104.053 312.901H102.101V317.333H100.773ZM102.101 311.813H103.861C104.683 311.813 105.312 311.648 105.749 311.317C106.187 310.976 106.405 310.464 106.405 309.781C106.405 309.099 106.187 308.619 105.749 308.341C105.312 308.053 104.683 307.909 103.861 307.909H102.101V311.813ZM106.533 317.333L103.797 312.533L104.837 311.829L108.037 317.333H106.533ZM112.75 317.525C112.057 317.525 111.422 317.365 110.846 317.045C110.281 316.715 109.833 316.251 109.502 315.653C109.172 315.045 109.006 314.309 109.006 313.445C109.006 312.603 109.177 311.877 109.518 311.269C109.86 310.661 110.297 310.192 110.83 309.861C111.364 309.531 111.929 309.365 112.526 309.365C113.188 309.365 113.748 309.52 114.206 309.829C114.676 310.128 115.028 310.549 115.262 311.093C115.497 311.637 115.614 312.277 115.614 313.013C115.614 313.152 115.609 313.285 115.598 313.413C115.598 313.541 115.582 313.669 115.55 313.797H109.95V312.757H114.43C114.43 312.011 114.265 311.44 113.934 311.045C113.614 310.64 113.15 310.437 112.542 310.437C112.19 310.437 111.844 310.539 111.502 310.741C111.161 310.933 110.878 311.248 110.654 311.685C110.441 312.123 110.334 312.704 110.334 313.429C110.334 314.091 110.446 314.645 110.67 315.093C110.905 315.541 111.22 315.883 111.614 316.117C112.009 316.341 112.441 316.453 112.91 316.453C113.284 316.453 113.63 316.4 113.95 316.293C114.281 316.187 114.58 316.043 114.846 315.861L115.326 316.725C114.985 316.96 114.601 317.152 114.174 317.301C113.758 317.451 113.284 317.525 112.75 317.525ZM117.536 317.333V305.941H118.848V313.637H118.88L122.176 309.557H123.648L121.056 312.693L124 317.333H122.56L120.288 313.589L118.848 315.285V317.333H117.536ZM126.85 317.477C126.519 317.477 126.253 317.413 126.05 317.285C125.847 317.147 125.698 316.949 125.602 316.693C125.506 316.427 125.458 316.107 125.458 315.733V305.941H126.77V315.829C126.77 316.043 126.807 316.192 126.882 316.277C126.957 316.352 127.047 316.389 127.154 316.389C127.197 316.389 127.234 316.389 127.266 316.389C127.309 316.379 127.362 316.368 127.426 316.357L127.618 317.349C127.522 317.381 127.41 317.408 127.282 317.429C127.165 317.461 127.021 317.477 126.85 317.477ZM131.328 317.525C130.901 317.525 130.512 317.44 130.16 317.269C129.819 317.088 129.547 316.837 129.344 316.517C129.141 316.187 129.04 315.787 129.04 315.317C129.04 314.443 129.424 313.781 130.192 313.333C130.96 312.885 132.176 312.571 133.84 312.389C133.829 312.069 133.776 311.76 133.68 311.461C133.595 311.163 133.435 310.923 133.2 310.741C132.965 310.56 132.64 310.469 132.224 310.469C131.776 310.469 131.355 310.555 130.96 310.725C130.565 310.885 130.213 311.067 129.904 311.269L129.392 310.373C129.627 310.213 129.904 310.059 130.224 309.909C130.544 309.749 130.891 309.621 131.264 309.525C131.637 309.419 132.032 309.365 132.448 309.365C133.077 309.365 133.589 309.499 133.984 309.765C134.389 310.021 134.683 310.389 134.864 310.869C135.056 311.349 135.152 311.915 135.152 312.565V317.333H134.064L133.952 316.405H133.904C133.531 316.715 133.131 316.981 132.704 317.205C132.277 317.419 131.819 317.525 131.328 317.525ZM131.696 316.437C132.08 316.437 132.437 316.352 132.768 316.181C133.109 316.011 133.467 315.76 133.84 315.429V313.333C132.965 313.44 132.272 313.579 131.76 313.749C131.259 313.909 130.896 314.112 130.672 314.357C130.448 314.603 130.336 314.896 130.336 315.237C130.336 315.664 130.469 315.973 130.736 316.165C131.003 316.347 131.323 316.437 131.696 316.437ZM137.598 317.333V309.557H138.686L138.798 310.677H138.846C139.188 310.315 139.556 310.005 139.95 309.749C140.356 309.493 140.793 309.365 141.262 309.365C141.86 309.365 142.324 309.499 142.654 309.765C142.996 310.032 143.246 310.395 143.406 310.853C143.812 310.405 144.222 310.048 144.638 309.781C145.054 309.504 145.497 309.365 145.966 309.365C146.777 309.365 147.374 309.627 147.758 310.149C148.142 310.661 148.334 311.413 148.334 312.405V317.333H147.022V312.581C147.022 311.845 146.905 311.317 146.67 310.997C146.436 310.667 146.073 310.501 145.582 310.501C145.273 310.501 144.958 310.603 144.638 310.805C144.329 310.997 143.993 311.296 143.63 311.701V317.333H142.318V312.581C142.318 311.845 142.201 311.317 141.966 310.997C141.732 310.667 141.364 310.501 140.862 310.501C140.276 310.501 139.625 310.901 138.91 311.701V317.333H137.598ZM150.864 317.333V309.557H151.952L152.064 310.677H152.112C152.485 310.304 152.88 309.995 153.296 309.749C153.712 309.493 154.187 309.365 154.72 309.365C155.541 309.365 156.139 309.627 156.512 310.149C156.896 310.661 157.088 311.413 157.088 312.405V317.333H155.776V312.581C155.776 311.845 155.659 311.317 155.424 310.997C155.2 310.667 154.827 310.501 154.304 310.501C153.909 310.501 153.552 310.603 153.232 310.805C152.923 311.008 152.571 311.307 152.176 311.701V317.333H150.864ZM159.614 317.333V309.557H160.926V317.333H159.614ZM159.038 308.213L161.102 305.573H162.542L162.622 305.717L160.094 308.213H159.038ZM170.195 317.525C169.832 317.525 169.459 317.44 169.075 317.269C168.691 317.088 168.323 316.843 167.971 316.533H167.923L167.811 317.333H166.755V305.941H168.067V309.045L168.035 310.453C168.387 310.144 168.771 309.888 169.187 309.685C169.613 309.472 170.04 309.365 170.467 309.365C171.139 309.365 171.704 309.531 172.163 309.861C172.621 310.181 172.968 310.64 173.203 311.237C173.437 311.824 173.555 312.517 173.555 313.317C173.555 314.203 173.395 314.96 173.075 315.589C172.765 316.219 172.355 316.699 171.843 317.029C171.331 317.36 170.781 317.525 170.195 317.525ZM169.971 316.421C170.397 316.421 170.776 316.299 171.107 316.053C171.448 315.808 171.715 315.456 171.907 314.997C172.099 314.528 172.195 313.973 172.195 313.333C172.195 312.768 172.125 312.272 171.987 311.845C171.848 311.408 171.629 311.072 171.331 310.837C171.032 310.592 170.637 310.469 170.147 310.469C169.827 310.469 169.491 310.56 169.139 310.741C168.797 310.912 168.44 311.173 168.067 311.525V315.605C168.408 315.904 168.744 316.117 169.075 316.245C169.416 316.363 169.715 316.421 169.971 316.421ZM177.172 317.525C176.745 317.525 176.356 317.44 176.004 317.269C175.662 317.088 175.39 316.837 175.188 316.517C174.985 316.187 174.884 315.787 174.884 315.317C174.884 314.443 175.268 313.781 176.036 313.333C176.804 312.885 178.02 312.571 179.684 312.389C179.673 312.069 179.62 311.76 179.524 311.461C179.438 311.163 179.278 310.923 179.044 310.741C178.809 310.56 178.484 310.469 178.068 310.469C177.62 310.469 177.198 310.555 176.804 310.725C176.409 310.885 176.057 311.067 175.748 311.269L175.236 310.373C175.47 310.213 175.748 310.059 176.068 309.909C176.388 309.749 176.734 309.621 177.108 309.525C177.481 309.419 177.876 309.365 178.292 309.365C178.921 309.365 179.433 309.499 179.828 309.765C180.233 310.021 180.526 310.389 180.708 310.869C180.9 311.349 180.996 311.915 180.996 312.565V317.333H179.908L179.796 316.405H179.748C179.374 316.715 178.974 316.981 178.548 317.205C178.121 317.419 177.662 317.525 177.172 317.525ZM177.54 316.437C177.924 316.437 178.281 316.352 178.612 316.181C178.953 316.011 179.31 315.76 179.684 315.429V313.333C178.809 313.44 178.116 313.579 177.604 313.749C177.102 313.909 176.74 314.112 176.516 314.357C176.292 314.603 176.18 314.896 176.18 315.237C176.18 315.664 176.313 315.973 176.58 316.165C176.846 316.347 177.166 316.437 177.54 316.437ZM183.442 317.333V309.557H184.53L184.642 310.677H184.69C185.064 310.304 185.458 309.995 185.874 309.749C186.29 309.493 186.765 309.365 187.298 309.365C188.12 309.365 188.717 309.627 189.09 310.149C189.474 310.661 189.666 311.413 189.666 312.405V317.333H188.354V312.581C188.354 311.845 188.237 311.317 188.002 310.997C187.778 310.667 187.405 310.501 186.882 310.501C186.488 310.501 186.13 310.603 185.81 310.805C185.501 311.008 185.149 311.307 184.754 311.701V317.333H183.442ZM192.192 317.333V309.557H193.28L193.392 310.677H193.44C193.814 310.304 194.208 309.995 194.624 309.749C195.04 309.493 195.515 309.365 196.048 309.365C196.87 309.365 197.467 309.627 197.84 310.149C198.224 310.661 198.416 311.413 198.416 312.405V317.333H197.104V312.581C197.104 311.845 196.987 311.317 196.752 310.997C196.528 310.667 196.155 310.501 195.632 310.501C195.238 310.501 194.88 310.603 194.56 310.805C194.251 311.008 193.899 311.307 193.504 311.701V317.333H192.192ZM204.094 317.525C203.401 317.525 202.766 317.365 202.19 317.045C201.625 316.715 201.177 316.251 200.846 315.653C200.516 315.045 200.35 314.309 200.35 313.445C200.35 312.603 200.521 311.877 200.862 311.269C201.204 310.661 201.641 310.192 202.174 309.861C202.708 309.531 203.273 309.365 203.87 309.365C204.532 309.365 205.092 309.52 205.55 309.829C206.02 310.128 206.372 310.549 206.606 311.093C206.841 311.637 206.958 312.277 206.958 313.013C206.958 313.152 206.953 313.285 206.942 313.413C206.942 313.541 206.926 313.669 206.894 313.797H201.294V312.757H205.774C205.774 312.011 205.609 311.44 205.278 311.045C204.958 310.64 204.494 310.437 203.886 310.437C203.534 310.437 203.188 310.539 202.846 310.741C202.505 310.933 202.222 311.248 201.998 311.685C201.785 312.123 201.678 312.704 201.678 313.429C201.678 314.091 201.79 314.645 202.014 315.093C202.249 315.541 202.564 315.883 202.958 316.117C203.353 316.341 203.785 316.453 204.254 316.453C204.628 316.453 204.974 316.4 205.294 316.293C205.625 316.187 205.924 316.043 206.19 315.861L206.67 316.725C206.329 316.96 205.945 317.152 205.518 317.301C205.102 317.451 204.628 317.525 204.094 317.525ZM208.88 317.333V309.557H209.968L210.08 310.965H210.128C210.384 310.475 210.704 310.085 211.088 309.797C211.472 309.509 211.888 309.365 212.336 309.365C212.506 309.365 212.656 309.376 212.784 309.397C212.912 309.419 213.04 309.461 213.168 309.525L212.88 310.645C212.762 310.613 212.65 310.592 212.544 310.581C212.448 310.56 212.32 310.549 212.16 310.549C211.829 310.549 211.482 310.683 211.12 310.949C210.768 311.216 210.458 311.68 210.192 312.341V317.333H208.88Z" fill="#141414"/>
</g>
<defs>
<clipPath id="clip0_1_3924">
<rect width="312" height="624" fill="white"/>
</clipPath>
</defs>
</svg>
