<svg width="24" height="25" viewBox="0 0 24 25" fill="none" xmlns="http://www.w3.org/2000/svg">
<path d="M22.2234 0.885071H1.77187C0.792187 0.885071 0 1.65851 0 2.61476V23.1507C0 24.1069 0.792187 24.8851 1.77187 24.8851H22.2234C23.2031 24.8851 24 24.1069 24 23.1554V2.61476C24 1.65851 23.2031 0.885071 22.2234 0.885071ZM7.12031 21.3366H3.55781V9.88038H7.12031V21.3366ZM5.33906 8.31945C4.19531 8.31945 3.27188 7.39601 3.27188 6.25695C3.27188 5.11788 4.19531 4.19445 5.33906 4.19445C6.47813 4.19445 7.40156 5.11788 7.40156 6.25695C7.40156 7.39132 6.47813 8.31945 5.33906 8.31945ZM20.4516 21.3366H16.8937V15.7679C16.8937 14.4413 16.8703 12.7304 15.0422 12.7304C13.1906 12.7304 12.9094 14.1788 12.9094 15.6741V21.3366H9.35625V9.88038H12.7687V11.446H12.8156C13.2891 10.546 14.4516 9.59445 16.1813 9.59445C19.7859 9.59445 20.4516 11.9663 20.4516 15.0507V21.3366Z" fill="#858585"/>
</svg>
