<svg width="24" height="25" viewBox="0 0 24 25" fill="none" xmlns="http://www.w3.org/2000/svg">
<g clip-path="url(#clip0_7_341)">
<path d="M24 12.8851C24 6.25765 18.6274 0.885071 12 0.885071C5.37258 0.885071 0 6.25765 0 12.8851C0 18.8745 4.3882 23.8391 10.125 24.7393V16.3538H7.07812V12.8851H10.125V10.2413C10.125 7.23382 11.9166 5.57257 14.6576 5.57257C15.9701 5.57257 17.3438 5.80695 17.3438 5.80695V8.76007H15.8306C14.34 8.76007 13.875 9.68515 13.875 10.6351V12.8851H17.2031L16.6711 16.3538H13.875V24.7393C19.6118 23.8391 24 18.8745 24 12.8851Z" fill="#858585"/>
</g>
<defs>
<clipPath id="clip0_7_341">
<rect width="24" height="24" fill="white" transform="translate(0 0.885071)"/>
</clipPath>
</defs>
</svg>
