<svg width="20" height="21" viewBox="0 0 20 21" fill="none" xmlns="http://www.w3.org/2000/svg">
<path d="M11.6666 5.58333H17.722C18.0595 5.58333 18.3333 5.85708 18.3333 6.19458V14.1387C18.3333 14.4762 18.0595 14.75 17.722 14.75H11.6666V5.58333Z" fill="#1976D2"/>
<path d="M17.5 7.64915H11.6666V14.125H17.5V7.64915Z" fill="white"/>
<path d="M11.25 18.5L1.66663 16.625V3.70833L11.25 1.83333V18.5Z" fill="#1976D2"/>
<path d="M6.35415 7.04166C5.03081 7.04166 3.95831 8.44082 3.95831 10.1667C3.95831 11.8925 5.03081 13.2917 6.35415 13.2917C7.67748 13.2917 8.74998 11.8925 8.74998 10.1667C8.74998 8.44082 7.67748 7.04166 6.35415 7.04166ZM6.24998 12.0417C5.55956 12.0417 4.99998 11.2021 4.99998 10.1667C4.99998 9.13124 5.55956 8.29166 6.24998 8.29166C6.9404 8.29166 7.49998 9.13124 7.49998 10.1667C7.49998 11.2021 6.9404 12.0417 6.24998 12.0417Z" fill="white"/>
<path d="M12.8112 12.5572H11.6862V13.7655H12.8112V12.5572Z" fill="#1976D2"/>
<path d="M14.2284 12.5572H13.1034V13.7655H14.2284V12.5572Z" fill="#1976D2"/>
<path d="M15.6454 12.5572H14.5204V13.7655H15.6454V12.5572Z" fill="#1976D2"/>
<path d="M12.8112 11.0661H11.6862V12.2744H12.8112V11.0661Z" fill="#1976D2"/>
<path d="M14.2284 11.0661H13.1034V12.2744H14.2284V11.0661Z" fill="#1976D2"/>
<path d="M15.6454 11.0661H14.5204V12.2744H15.6454V11.0661Z" fill="#1976D2"/>
<path d="M17.0625 11.0661H15.9375V12.2744H17.0625V11.0661Z" fill="#1976D2"/>
<path d="M12.8112 9.62752H11.6862V10.8359H12.8112V9.62752Z" fill="#1976D2"/>
<path d="M14.2284 9.62752H13.1034V10.8359H14.2284V9.62752Z" fill="#1976D2"/>
<path d="M15.6454 9.62752H14.5204V10.8359H15.6454V9.62752Z" fill="#1976D2"/>
<path d="M17.0624 9.62752H15.9374V10.8359H17.0624V9.62752Z" fill="#1976D2"/>
<path d="M14.2284 8.13011H13.1034V9.33844H14.2284V8.13011Z" fill="#1976D2"/>
<path d="M15.6454 8.13011H14.5204V9.33844H15.6454V8.13011Z" fill="#1976D2"/>
<path d="M17.0624 8.13011H15.9374V9.33844H17.0624V8.13011Z" fill="#1976D2"/>
</svg>
